<!DOCTYPE svg PUBLIC "-//W3C//DTD SVG 1.1//EN" "http://www.w3.org/Graphics/SVG/1.1/DTD/svg11.dtd">
<!-- Uploaded to: SVG Repo, www.svgrepo.com, Transformed by: SVG Repo Mixer Tools -->
<svg fill="#6c118d" version="1.1" id="Layer_1" xmlns="http://www.w3.org/2000/svg" xmlns:xlink="http://www.w3.org/1999/xlink" width="64px" height="64px" viewBox="-50 -50 200.00 200.00" enable-background="new 0 0 100 100" xml:space="preserve" stroke="#6c118d" transform="rotate(270)">
<g id="SVGRepo_bgCarrier" stroke-width="0"/>
<g id="SVGRepo_tracerCarrier" stroke-linecap="round" stroke-linejoin="round"/>
<g id="SVGRepo_iconCarrier"> <g> <path d="M86.45,23.27h-3.475V90.18c0,0.835-0.677,1.513-1.513,1.513H31.987v3.475c0,0.836,0.677,1.513,1.513,1.513l0.001,0v0h52.95 c0.836,0,1.513-0.677,1.513-1.513V24.782C87.963,23.946,87.286,23.27,86.45,23.27z"/> <path d="M77.988,85.193V14.807c0-0.836-0.677-1.513-1.513-1.513h-3.475v66.911c0,0.836-0.677,1.513-1.513,1.513H22.011v3.475 c0,0.836,0.677,1.513,1.513,1.513c0,0,0,0,0,0h52.951C77.311,86.706,77.988,86.029,77.988,85.193z"/> <path d="M68.013,75.218V4.832c0-0.836-0.677-1.513-1.513-1.513H13.55c-0.836,0-1.513,0.677-1.513,1.513v70.386 c0,0.836,0.677,1.513,1.513,1.513H66.5C67.336,76.731,68.013,76.054,68.013,75.218z"/> </g> </g>
</svg>